<?xml version="1.0" encoding="UTF-8"?>
<svg id="Layer_2" data-name="Layer 2" xmlns="http://www.w3.org/2000/svg" viewBox="0 0 84.05 168.17">
  <defs>
    <style>
      .cls-1 {
        fill: none;
        stroke: #000;
        stroke-miterlimit: 10;
      }
    </style>
  </defs>
  <g id="Layer_2-2" data-name="Layer 2">
    <polygon id="MOUTH" class="cls-1" points="16.5 .66 .5 13.66 .5 25.06 9.5 38.66 16.5 36 30.5 24.66 45.5 39.66 44.5 101.66 27.5 119.66 23 128.23 23 150.73 27.5 159.66 48.5 165.66 67.5 167.66 83.5 165.66 81.5 146.66 70.5 138.66 67.5 143.66 58.5 145.66 42 136.95 43.5 125.66 56.5 117.66 61.5 108.66 63.5 91.66 60.5 64.66 57.5 43.66 61.5 33.66 56.5 19.66 33.5 16.66 16.5 .66"/>
  </g>
</svg>