<?xml version="1.0" encoding="UTF-8"?>
<svg id="Layer_2" data-name="Layer 2" xmlns="http://www.w3.org/2000/svg" viewBox="0 0 176.23 370.02">
  <defs>
    <style>
      .cls-1 {
        fill: none;
        stroke: #000;
        stroke-miterlimit: 10;
      }
    </style>
  </defs>
  <g id="Layer_2-2" data-name="Layer 2">
    <polygon id="SKIN" class="cls-1" points="22.13 152.02 .63 211.52 16.63 218.52 25.63 221.52 47.63 175.52 34.63 248.52 53.63 316.52 48.63 369.52 119.41 369.52 116.63 322.52 135.63 237.52 130.63 200.52 145.82 227.02 175.63 209.52 159.63 159.52 157.23 152.02 157.63 127.52 157.63 93.52 130.63 71.52 121.63 81.52 110.63 79.52 109.42 71.52 107.63 62.52 107.63 54.52 74.88 54.52 74.88 36.45 87.63 32.52 95.63 18.52 116.63 10.52 93.63 .52 67.63 6.52 59.63 22.52 59.63 37.52 59.63 52.52 73.58 64.99 95.63 66.52 100.63 84.52 96.63 96.52 100.63 118.52 102.63 142.52 101.63 158.52 95.63 169.52 83.63 177.52 82.31 185.02 94.63 193.52 102.63 191.52 106.57 185.02 120.63 194.52 122.63 217.52 108.63 220.52 83.63 218.52 62.63 213.52 57.63 201.52 56.63 176.52 67.63 161.52 78.63 151.52 80.63 130.52 80.63 91.52 74.88 84.26 68.63 77.52 53.63 89.52 44.63 91.52 36.63 78.52 25.63 86.52 22.63 110.52 22.13 152.02"/>
  </g>
</svg>